<svg width="89" height="81" viewBox="0 0 89 81" fill="none" xmlns="http://www.w3.org/2000/svg">
<path d="M47.8589 2.93896C69.0151 2.93896 86.1177 19.8704 86.1177 40.6978C86.1177 61.5251 69.0151 78.4565 47.8589 78.4565C26.7027 78.4565 9.6001 61.5251 9.6001 40.6978C9.6001 19.8704 26.7027 2.93896 47.8589 2.93896Z" stroke="#647BE1" stroke-width="4.5"/>
<path d="M84.0741 37.762C82.0415 23.8736 70.9498 21.4579 62.9588 21.8411C54.9678 22.2244 50.9261 24.7952 48.167 26.6963C45.4078 28.5974 33.3728 39.6221 28.9813 41.4766C24.5898 43.3311 19.3754 43.5864 15.291 39.6221C16.6726 39.2417 20.0363 37.8202 22.4389 35.1773C25.4421 31.8738 25.9827 27.3689 25.5022 25.9274C25.0217 24.4858 22.6792 26.9485 21.4178 27.429C20.1564 27.9095 17.9342 28.1498 16.6126 28.9907C15.291 29.8316 13.3091 31.7537 13.1289 32.2942C12.9487 32.8348 10.7263 29.5913 8.08343 28.5102C5.44059 27.429 3.69867 27.1287 2.67757 26.528C1.65648 25.9274 0.75541 24.8462 0.214829 25.9274C-0.325752 27.0086 0.515298 30.3121 1.3562 31.8738C2.19711 33.4355 5.08022 37.5799 7.54287 38.601C9.51298 39.4179 10.9531 44.1751 11.5938 46.7178C12.0142 48.1394 14.21 51.3442 17.8139 54.4581C21.4178 57.5719 25.3061 60.1174 30.5476 59.083C35.7891 58.0487 39.0167 55.4191 40.5784 53.7373C39.8942 55.2953 38.2384 58.8473 37.0889 60.5914C35.652 62.7715 35.0574 64.4066 33.3728 65.5957C31.6882 66.7849 31.7873 68.4695 32.58 68.5686C33.3728 68.6677 42.3906 67.0326 46.1563 62.7219C49.9219 58.4112 53.9353 54.1005 55.6695 46.7178C58.0974 48.1547 59.0388 47.9565 60.4262 47.4611C61.8135 46.9656 68.2548 43.6458 73.4078 41.9612C78.5608 40.2766 81.9073 40.1279 84.0741 40.0784C84.1487 39.7425 84.2533 38.809 84.0741 37.762Z" fill="#647BE1"/>
<path d="M78.5384 45.7899C79.1714 45.9355 79.5686 46.5675 79.4003 47.1949C77.6696 53.6452 73.9993 59.4201 68.8727 63.7296C63.4456 68.2917 56.6812 70.9638 49.6014 71.3421C42.5216 71.7205 35.5109 69.7846 29.6285 65.8268C24.0718 62.0882 19.807 56.7374 17.3987 50.5084C17.1644 49.9025 17.492 49.2317 18.1059 49.0194V49.0194C18.7198 48.8072 19.3874 49.1338 19.6234 49.739C21.8637 55.4856 25.8087 60.4216 30.9416 63.8751C36.4003 67.5478 42.906 69.3443 49.4759 68.9932C56.0457 68.6421 62.3229 66.1624 67.3591 61.9289C72.0947 57.948 75.4912 52.6197 77.1063 46.667C77.2764 46.0401 77.9054 45.6442 78.5384 45.7899V45.7899Z" fill="#647BE1"/>
<path d="M71.8052 47.5641C72.5125 47.8569 72.8517 48.6693 72.5242 49.3612C70.5897 53.4471 67.6878 57.0083 64.0617 59.7311C60.0656 62.7317 55.3367 64.6036 50.3696 65.1513C45.4024 65.699 40.3793 64.9022 35.8255 62.8443C31.6933 60.977 28.0852 58.1336 25.307 54.5673C24.8366 53.9634 24.9906 53.0965 25.6171 52.6567V52.6567C26.2436 52.2168 27.1051 52.3709 27.5789 52.9722C30.0693 56.1332 33.2875 58.6554 36.967 60.3182C41.0684 62.1716 45.5922 62.8891 50.0658 62.3959C54.5393 61.9027 58.7982 60.2167 62.3972 57.5143C65.6261 55.0898 68.2174 51.9271 69.9594 48.2993C70.2907 47.6093 71.098 47.2713 71.8052 47.5641V47.5641Z" fill="#647BE1"/>
<path d="M44.3706 59.5988C55.5744 57.0959 59.388 53.6396 65.2285 50.8981C71.069 48.1567 78.3395 44.9379 84.0606 44.6996" stroke="#647BE1" stroke-width="3"/>
<circle cx="59.7205" cy="41.4885" r="2.21118" fill="white"/>
</svg>
