<svg width="81" height="104" viewBox="0 0 81 104" fill="none" xmlns="http://www.w3.org/2000/svg">
<path fill-rule="evenodd" clip-rule="evenodd" d="M0.0498047 0.0610352V84.9318C0.0498047 95.2367 0.901416 103.504 15.9171 103.504H49.206C63.5206 103.504 79.4558 89.4599 80.5362 65.4221C81.6165 41.3843 60.5497 26.2594 44.0743 25.7192C30.894 25.287 20.9368 32.2013 17.6057 35.7124V0.0610352H0.0498047ZM17.3016 68.0568C17.4612 64.8557 17.6057 61.9562 17.6057 60.0203C17.6057 51.9177 28.1391 41.9245 40.2931 41.6544C52.447 41.3843 64.3309 53.8083 64.0608 65.4221C63.7907 77.0359 56.4984 85.1385 45.4248 87.0291C36.5659 88.5416 19.2262 90.2702 17.6057 87.0291C16.4691 84.756 16.9268 75.5744 17.3016 68.0568Z" fill="url(#paint0_linear_184_4)"/>
<defs>
<linearGradient id="paint0_linear_184_4" x1="40.313" y1="0.0610352" x2="2.94304" y2="103.504" gradientUnits="userSpaceOnUse">
<stop stop-color="#A250F5"/>
<stop offset="1" stop-color="#C96E6E"/>
</linearGradient>
</defs>
</svg>
